<svg viewBox="0 0 660 509" fill="none" xmlns="http://www.w3.org/2000/svg">
<path d="M110.748 305.889C110.748 305.889 74.3077 239.949 106.796 209.389C139.284 178.829 157.022 162.151 170.808 115.877C184.594 69.6036 215.154 54.8538 276.177 59.7704C337.201 64.687 412.01 90.3304 412.01 90.3304C412.01 90.3304 495.689 53.8898 540.035 74.6166C584.38 95.247 586.308 139.593 568.57 189.819C550.832 240.046 571.559 268.581 577.439 291.236C583.32 313.891 581.392 403.45 505.522 401.522C429.749 399.594 111.712 309.938 111.712 309.938L110.748 305.889Z" fill="#FFEDE6"/>
<path d="M121.546 460.617L108.724 462.931C108.338 462.353 108.049 461.774 107.663 461.196C107.085 460.425 106.507 459.557 105.928 458.882C99.6619 451.652 89.8287 446.735 80.4775 448.856C74.3077 450.302 68.7162 454.64 62.45 453.869C52.2312 452.616 48.4714 439.409 39.6987 433.914C29.7691 427.744 15.0193 432.757 6.15017 425.044C-0.983714 418.875 -0.212483 407.595 4.60771 399.305C5.28253 398.148 5.95736 397.087 6.825 396.123C13.9589 387.254 25.3345 381.856 36.7102 382.145C48.0858 382.434 59.1723 388.315 65.8241 397.569C72.8616 407.306 75.5609 420.995 86.0689 426.78C91.1783 429.575 97.2518 429.961 102.554 432.371C107.085 434.396 111.423 438.734 114.894 444.229C117.689 448.567 119.81 453.58 121.064 458.689C121.256 459.364 121.449 460.039 121.546 460.617Z" fill="#9FB26B"/>
<path d="M117.4 461.774C117.015 461.196 116.725 460.617 116.34 460.039C115.183 458.304 114.026 456.665 112.676 455.026C108.627 450.109 104 446.06 98.7943 442.976C92.8172 439.505 86.551 438.927 79.8991 438.348C73.5365 437.77 66.8846 437.191 60.6183 433.721C54.8341 430.539 50.3995 424.562 46.0614 418.778C41.8196 412.994 37.385 407.113 31.6972 404.221C23.3101 399.883 8.75309 400.172 4.51132 400.461L4.41492 398.533C10.0063 398.244 23.9849 398.148 32.5648 402.582C38.5419 405.667 43.1693 411.837 47.5074 417.718C51.6528 423.309 55.991 429.19 61.3896 432.082C67.2702 435.36 73.7293 435.938 79.8991 436.42C86.4546 436.999 93.2028 437.577 99.5655 441.337C104.964 444.518 109.784 448.663 114.026 453.773C115.376 455.412 116.629 457.147 117.786 458.979C118.171 459.557 118.557 460.135 118.943 460.81L117.4 461.774Z" fill="white"/>
<path d="M128.197 381.47C125.402 390.243 122.51 401.329 129.354 407.499C132.15 410.005 136.006 411.066 138.898 413.572C143.815 417.718 144.683 425.141 143.14 431.407C141.308 439.216 138.223 447.989 135.235 456.279C134.946 456.954 134.753 457.725 134.464 458.4L112.291 462.449C112.387 461.774 112.387 461.099 112.484 460.425C112.773 458.497 113.062 456.472 113.351 454.448C113.93 451.17 114.508 447.699 114.797 444.422C115.858 434.492 114.508 425.43 102.94 422.731C97.9267 421.574 92.2389 423.309 87.8043 420.706C80.8632 416.464 83.3697 406.053 81.538 398.148C79.8992 390.725 73.9221 384.94 67.2703 381.181C60.6184 377.421 53.1953 375.396 46.2542 372.504C30.7332 366.142 16.6583 355.152 9.23517 340.113C1.81208 325.074 1.90848 305.889 11.9345 292.489C22.1533 278.896 42.5909 273.594 56.7623 282.463C71.8977 291.911 77.3927 313.891 94.2633 319.771C100.53 321.989 107.567 321.507 113.833 323.724C124.245 327.387 130.897 338.088 132.536 348.982C134.175 359.875 131.572 370.962 128.197 381.47Z" fill="#9FB26B"/>
<path d="M121.642 460.425V458.497C121.642 455.701 121.835 452.712 122.028 449.627C122.606 440.083 123.281 430.154 117.015 424.466C105.928 414.344 103.132 403.45 100.433 392.846C96.7698 378.771 93.1065 364.214 69.2947 350.621C66.7882 349.175 64.0889 347.729 61.486 346.379C41.916 335.871 19.7432 323.917 16.369 286.898L18.2971 286.705C21.5748 322.664 42.3016 333.846 62.3536 344.644C64.9565 345.993 67.6558 347.439 70.1623 348.885C94.6489 362.864 98.5051 377.807 102.265 392.267C105.061 402.968 107.663 413.187 118.364 422.924C125.305 429.286 124.631 439.601 123.956 449.627C123.763 452.712 123.57 455.604 123.57 458.304V460.232L121.642 460.425Z" fill="white"/>
<path d="M46.0614 373.276C28.9015 366.142 15.5014 354.477 8.5603 340.498L10.2956 339.631C17.0438 353.224 30.0584 364.599 46.8326 371.54L46.0614 373.276Z" fill="#633F3F"/>
<path d="M111.23 463.51L111.327 462.256C111.423 461.581 111.423 460.907 111.52 460.232C111.809 458.111 112.194 455.894 112.484 454.255L112.58 453.387C113.062 450.399 113.641 447.217 113.93 444.229C114.797 435.456 114.219 426.201 102.747 423.502C100.819 423.02 98.7943 423.116 96.7699 423.116C93.4921 423.116 90.2144 423.116 87.3223 421.381C82.1165 418.2 81.7309 411.934 81.4416 405.86C81.3452 403.257 81.1524 400.558 80.6704 398.244L82.5985 397.859C83.1769 400.365 83.2733 403.161 83.4661 405.86C83.7553 411.644 84.0445 417.139 88.3827 419.839C90.7928 421.285 93.6849 421.285 96.7699 421.285C98.8907 421.285 101.108 421.285 103.229 421.767C116.147 424.755 116.822 435.552 115.858 444.518C115.569 447.603 114.99 450.688 114.508 453.773L114.412 454.64C114.123 456.279 113.737 458.497 113.544 460.521C113.544 460.714 113.448 461.003 113.448 461.196L133.789 457.436L134.367 455.894C136.97 448.663 140.248 439.216 142.176 431.118C143.429 425.719 143.14 418.393 138.223 414.247C136.874 413.09 135.331 412.319 133.789 411.451C132.054 410.487 130.222 409.523 128.68 408.174L129.933 406.728C131.282 407.981 132.921 408.849 134.657 409.716C136.295 410.584 138.031 411.452 139.477 412.705C144.972 417.429 145.454 425.526 144.008 431.504C142.08 439.698 138.706 449.145 136.103 456.472L135.139 459.075L111.23 463.51Z" fill="#633F3F"/>
<path d="M129.065 381.759L127.233 381.181C130.318 371.637 133.21 360.358 131.572 349.175C129.836 337.51 122.702 327.966 113.544 324.688C110.459 323.628 107.181 323.146 103.904 322.76C100.626 322.374 97.1554 321.892 93.9741 320.736L94.6489 318.904C97.7339 319.964 101.012 320.35 104.193 320.832C107.567 321.218 110.941 321.7 114.219 322.856C124.149 326.327 131.668 336.546 133.5 348.885C135.235 360.358 132.246 371.926 129.065 381.759Z" fill="#633F3F"/>
<path d="M5.18613 315.626L3.25806 315.53C3.64367 306.564 6.43938 298.37 11.356 291.814C22.0568 277.45 43.0728 272.823 57.2442 281.596C64.1853 285.934 69.1983 292.875 74.0185 299.623C75.7537 302.033 77.489 304.443 79.3207 306.757L77.7782 307.914C75.9465 305.6 74.1149 303.094 72.476 300.683C67.7522 294.128 62.932 287.38 56.2802 283.234C42.9764 274.944 23.1172 279.378 12.8984 292.971C8.17465 299.237 5.57175 307.046 5.18613 315.626Z" fill="#633F3F"/>
<path d="M63.8961 455.026C63.4141 455.026 62.8357 455.026 62.3536 454.93L62.5464 453.002C66.2098 453.484 69.7767 451.941 73.4401 450.399C75.6574 449.435 77.8747 448.567 80.1883 447.989L80.6704 449.82C78.4531 450.302 76.3322 451.266 74.2113 452.134C70.8372 453.58 67.463 455.026 63.8961 455.026Z" fill="#633F3F"/>
<path d="M5.57179 425.912C-2.04411 419.357 -1.08008 407.403 3.83652 398.919C4.51134 397.762 5.28258 396.702 6.05381 395.641C13.2841 386.483 25.0454 381.084 36.7102 381.374C48.3751 381.663 59.8471 387.736 66.5954 397.184L65.0529 398.341C58.5939 389.375 47.7003 383.591 36.7102 383.302C25.6238 383.012 14.5373 388.218 7.59627 396.895C6.82504 397.859 6.15021 398.919 5.47538 399.979C0.944403 407.692 -0.0196347 418.682 6.82504 424.562L5.57179 425.912Z" fill="#633F3F"/>
<path d="M335.176 508.145C514.284 508.145 659.479 498.606 659.479 486.839C659.479 475.073 514.284 465.534 335.176 465.534C156.069 465.534 10.874 475.073 10.874 486.839C10.874 498.606 156.069 508.145 335.176 508.145Z" fill="#E4EDFC"/>
<path d="M495.882 274.269L507.836 279.571C508.318 279.089 508.8 278.607 509.282 278.125C510.053 277.45 510.728 276.872 511.499 276.293C519.308 270.702 530.009 268.195 538.588 272.534C544.18 275.329 548.711 280.921 554.977 281.596C565.196 282.752 571.944 270.798 581.681 267.521C592.767 263.857 605.878 272.052 616.29 266.653C624.581 262.315 626.509 251.132 623.713 241.974C623.327 240.72 622.845 239.563 622.363 238.407C617.543 228.091 607.71 220.283 596.527 217.873C585.344 215.462 573.197 218.644 564.617 226.163C555.556 234.068 549.675 246.697 538.106 249.879C532.515 251.421 526.442 250.361 520.754 251.421C515.837 252.385 510.631 255.566 506.004 260.001C502.341 263.568 499.063 268.003 496.653 272.63C496.46 273.112 496.171 273.69 495.882 274.269Z" fill="#9FB26B"/>
<path d="M499.641 276.293L498.292 274.944C498.774 274.462 499.256 273.98 499.834 273.498C501.377 272.052 503.016 270.606 504.654 269.352C509.185 265.882 514.391 263.664 519.404 261.447C520.079 261.158 520.754 260.869 521.429 260.58C528.852 257.398 535.793 258.266 542.541 259.037C549.097 259.808 555.845 260.676 563.172 257.687C568.474 255.47 572.812 251.614 576.957 247.951C581.97 243.42 587.176 238.792 594.117 237.057C602.119 235.033 615.037 238.31 624.099 240.913L623.52 242.745C618.411 241.299 602.986 236.768 594.503 238.889C587.947 240.528 583.224 244.769 578.114 249.3C573.872 253.156 569.438 257.109 563.846 259.423C556.134 262.604 549.097 261.736 542.252 260.869C535.504 260.001 529.045 259.23 522.103 262.218C521.429 262.508 520.754 262.797 520.079 263.086C514.873 265.303 510.053 267.424 505.715 270.702C504.076 271.955 502.534 273.305 500.991 274.751C500.605 275.329 500.123 275.811 499.641 276.293Z" fill="white"/>
<path d="M507.836 195.7C508.51 204.858 508.703 216.33 500.702 220.765C497.424 222.596 493.375 222.693 490.001 224.428C484.313 227.32 481.71 234.358 481.71 240.72C481.71 248.722 482.578 257.977 483.638 266.749C483.735 267.521 483.831 268.195 483.927 268.967L504.558 278.029C504.654 277.354 504.751 276.679 504.847 276.004C505.04 274.076 505.233 272.052 505.329 270.027C505.522 266.653 505.811 263.182 506.197 259.905C507.546 249.975 510.921 241.492 522.778 241.492C527.888 241.492 533.093 244.577 538.01 243.034C545.722 240.528 545.722 229.827 549.289 222.596C552.663 215.752 559.797 211.51 567.028 209.389C574.354 207.268 582.067 206.979 589.49 205.822C606.071 203.219 622.267 195.796 632.968 182.974C643.669 170.153 648.007 151.354 641.355 136.026C634.703 120.698 616.097 110.672 600.287 115.974C583.32 121.662 572.908 141.81 555.17 143.642C548.518 144.317 541.866 142.196 535.214 142.87C524.224 144.027 515.259 152.896 511.113 163.115C506.968 173.334 506.968 184.71 507.836 195.7Z" fill="#9FB26B"/>
<path d="M493.182 270.124L491.351 269.642C492.026 267.039 492.508 264.243 493.086 261.254C494.918 251.421 497.039 240.335 504.365 234.551C520.657 221.729 523.935 209.582 527.213 197.821C530.298 186.638 533.19 176.13 547.651 167.55C552.278 164.851 561.147 163.983 571.366 162.922C595.081 160.609 627.473 157.427 636.728 128.988L638.559 129.567C628.919 159.163 595.756 162.344 571.559 164.754C561.533 165.718 552.953 166.586 548.711 169.092C534.925 177.19 532.226 186.927 529.141 198.206C525.96 209.678 522.393 222.693 505.618 235.9C498.87 241.202 496.846 252 495.014 261.447C494.339 264.629 493.857 267.424 493.182 270.124Z" fill="white"/>
<path d="M589.683 206.786L589.393 204.858C607.324 201.966 622.556 193.964 632.293 182.3L633.739 183.553C623.713 195.603 607.999 203.894 589.683 206.786Z" fill="#5E3B3B"/>
<path d="M505.233 279.475L482.963 269.642L482.674 266.846C481.807 259.133 480.746 249.108 480.746 240.72C480.746 234.551 483.06 226.838 489.519 223.56C491.254 222.693 493.086 222.211 494.918 221.729C496.846 221.247 498.581 220.765 500.22 219.897L501.184 221.632C499.352 222.596 497.328 223.175 495.4 223.657C493.664 224.139 491.929 224.525 490.387 225.296C484.699 228.188 482.674 235.225 482.674 240.817C482.674 249.108 483.638 259.037 484.602 266.749L484.795 268.388L503.69 276.775C503.69 276.583 503.787 276.293 503.787 276.101C503.98 273.98 504.172 271.859 504.269 270.124L504.365 269.256C504.558 266.171 504.847 262.99 505.233 259.905C506.39 250.939 509.475 240.72 522.682 240.72C522.778 240.72 522.778 240.72 522.875 240.72C524.996 240.72 527.213 241.202 529.237 241.781C532.226 242.552 535.118 243.227 537.817 242.359C542.637 240.817 544.18 235.515 545.915 229.923C546.686 227.32 547.458 224.717 548.614 222.404L550.35 223.271C549.289 225.489 548.518 227.995 547.747 230.502C546.012 236.286 544.276 242.359 538.396 244.191C535.214 245.251 531.937 244.48 528.852 243.709C526.924 243.227 524.899 242.745 522.971 242.745H522.875C511.306 242.745 508.51 251.614 507.354 260.29C506.968 263.279 506.775 266.46 506.486 269.545L506.39 270.413C506.293 272.148 506.1 274.365 505.908 276.486C505.811 277.161 505.715 277.836 505.618 278.511L505.233 279.475Z" fill="#5E3B3B"/>
<path d="M506.872 195.796C506.1 185.577 505.908 173.623 510.246 162.826C514.873 151.258 524.61 143.063 535.118 142.003C538.588 141.617 542.059 142.003 545.337 142.388C548.518 142.774 551.892 143.063 555.074 142.774L555.266 144.702C551.892 145.088 548.422 144.702 545.144 144.317C541.866 143.931 538.589 143.642 535.311 143.931C525.574 144.991 516.416 152.704 512.077 163.597C507.836 174.105 508.125 185.674 508.896 195.7L506.872 195.796Z" fill="#5E3B3B"/>
<path d="M644.633 160.609L642.705 160.223C644.344 151.836 643.572 143.545 640.487 136.315C633.739 120.698 615.519 111.828 600.576 116.841C593.153 119.348 586.887 124.747 580.813 130.049C578.596 131.977 576.283 134.001 573.969 135.833L572.812 134.291C575.126 132.459 577.439 130.531 579.657 128.603C585.923 123.204 592.286 117.613 600.094 115.01C615.904 109.708 635.282 119.155 642.416 135.544C645.5 143.16 646.368 151.836 644.633 160.609Z" fill="#5E3B3B"/>
<path d="M554.881 282.463C550.639 281.981 547.265 279.475 543.987 277.065C542.155 275.715 540.227 274.269 538.203 273.305L539.071 271.57C541.191 272.63 543.216 274.076 545.048 275.522C548.325 277.932 551.314 280.15 555.074 280.535L554.881 282.463Z" fill="#5E3B3B"/>
<path d="M616.772 267.424L615.904 265.689C623.906 261.544 625.448 250.65 622.845 242.07C622.46 240.913 622.074 239.756 621.496 238.599C616.772 228.573 607.132 220.958 596.334 218.644C585.537 216.33 573.583 219.415 565.196 226.645L563.943 225.199C572.715 217.583 585.344 214.306 596.72 216.716C608.096 219.126 618.314 227.224 623.231 237.732C623.809 238.889 624.291 240.238 624.677 241.492C627.569 250.939 625.737 262.797 616.772 267.424Z" fill="#5E3B3B"/>
<path d="M532.13 257.302L360.82 360.261L189.703 257.302H532.13Z" fill="#5E3B3B"/>
<path d="M532.997 257.302L371.231 134.869C364.965 130.145 356.482 130.145 350.215 134.869L188.835 257.302H532.997Z" fill="#5E3B3B"/>
<path d="M495.978 229.248L371.328 134.869C365.062 130.145 356.578 130.145 350.312 134.869L203.875 245.926L495.978 229.248Z" fill="#633F3F"/>
<path d="M220.649 79.5331V79.0511C220.649 58.4207 203.971 41.7428 183.34 41.7428C162.71 41.7428 146.032 58.4207 146.032 79.0511V79.5331H220.649Z" fill="#5E3B3B"/>
<path d="M510.728 446.928H259.596C238.965 446.928 222.288 430.25 222.288 409.62L220.552 79.0511C220.552 58.4207 203.874 41.7428 183.244 41.7428H463.297C483.928 41.7428 500.605 58.4207 500.605 79.0511L502.341 349.657V409.62C502.244 430.25 490.097 446.928 510.728 446.928Z" fill="white"/>
<path d="M287.36 366.335H256.8V367.781H287.36V366.335Z" fill="#5E3B3B"/>
<path d="M408.347 366.335H302.496V367.781H408.347V366.335Z" fill="#5E3B3B"/>
<path d="M287.36 166.489H256.8V167.935H287.36V166.489Z" fill="#5E3B3B"/>
<path d="M390.994 166.489H302.496V167.935H390.994V166.489Z" fill="#5E3B3B"/>
<path d="M332.284 179.6H256.8V181.046H332.284V179.6Z" fill="#5E3B3B"/>
<path d="M287.36 312.156H256.8V313.602H287.36V312.156Z" fill="#5E3B3B"/>
<path d="M408.347 312.156H302.496V313.602H408.347V312.156Z" fill="#5E3B3B"/>
<path d="M332.284 325.266H256.8V326.713H332.284V325.266Z" fill="#5E3B3B"/>
<path d="M441.606 325.266H346.938V326.713H441.606V325.266Z" fill="#5E3B3B"/>
<path d="M305.677 284.488H256.8V285.934H305.677V284.488Z" fill="#5E3B3B"/>
<path d="M334.791 297.599H256.8V299.045H334.791V297.599Z" fill="#5E3B3B"/>
<path d="M383.571 297.599H349.637V299.045H383.571V297.599Z" fill="#5E3B3B"/>
<path d="M334.791 153.282H256.8V154.728H334.791V153.282Z" fill="#5E3B3B"/>
<path d="M384.535 153.282H350.601V154.728H384.535V153.282Z" fill="#5E3B3B"/>
<path d="M354.072 284.488H320.137V285.934H354.072V284.488Z" fill="#5E3B3B"/>
<path d="M453.464 284.488H368.629V285.934H453.464V284.488Z" fill="#5E3B3B"/>
<path d="M305.677 338.667H256.8V340.113H305.677V338.667Z" fill="#5E3B3B"/>
<path d="M334.791 351.681H256.8V353.127H334.791V351.681Z" fill="#5E3B3B"/>
<path d="M383.571 351.681H349.637V353.127H383.571V351.681Z" fill="#5E3B3B"/>
<path d="M354.072 338.667H320.137V340.113H354.072V338.667Z" fill="#5E3B3B"/>
<path d="M453.464 338.667H368.629V340.113H453.464V338.667Z" fill="#5E3B3B"/>
<path d="M452.693 153.282H399.767V154.728H452.693V153.282Z" fill="#5E3B3B"/>
<path d="M352.722 100.067H256.8V112.503H352.722V100.067Z" fill="#5E3B3B"/>
<path d="M352.722 120.119H256.8V124.65H352.722V120.119Z" fill="#5E3B3B"/>
<path d="M479.589 193.386H256.8V271.666H479.589V193.386Z" fill="#DCE7F9"/>
<path d="M501.184 350.139L499.448 79.5331C499.448 59.4811 483.156 43.1888 463.104 43.1888V41.2607C484.217 41.2607 501.377 58.4206 501.377 79.5331L503.112 350.139H501.184Z" fill="#5E3B3B"/>
<path d="M260.946 448.278H259.403C238.291 448.278 221.131 431.118 221.131 410.102L219.396 79.5331C219.396 59.4811 203.103 43.1888 183.051 43.1888V41.2607H349.926V43.1888H195.102C210.334 48.2018 221.324 62.6624 221.324 79.5331L223.059 410.102C223.059 430.057 239.351 446.35 259.403 446.35H260.946C283.504 446.35 292.373 426.49 295.844 409.813L297.772 410.198C292.47 435.07 279.744 448.278 260.946 448.278Z" fill="#5E3B3B"/>
<path d="M116.982 50.0313L116.057 51.7231L130.523 59.6294L131.448 57.9375L116.982 50.0313Z" fill="#5E3B3B"/>
<path d="M129.049 67.1337L112.63 68.6147L112.803 70.535L129.222 69.0541L129.049 67.1337Z" fill="#5E3B3B"/>
<path d="M532.419 257.302V456.183C532.419 465.245 525.285 472.571 516.416 472.571H205.706C196.837 472.571 189.703 465.245 189.703 456.183V257.302L361.013 360.165L532.419 257.302Z" fill="#AFCAF9"/>
<path d="M422.133 388.797L371.521 351.103C365.158 346.379 356.482 346.379 350.119 351.103L222.673 446.253L422.133 388.797Z" fill="#AFCAF9"/>
<path d="M264.03 416.561L262.874 415.018L349.541 350.331C356.193 345.415 365.447 345.415 372.099 350.331L422.711 388.025L421.554 389.568L370.942 351.874C364.965 347.439 356.675 347.439 350.698 351.874L264.03 416.561Z" fill="#5E3B3B"/>
<path d="M362.362 473.632H205.706C196.355 473.632 188.739 465.823 188.739 456.279V334.039H190.667V456.279C190.667 464.763 197.415 471.704 205.706 471.704H362.362V473.632Z" fill="#633F3F"/>
<path d="M516.416 473.632H497.135V471.704H516.416C524.706 471.704 531.455 464.763 531.455 456.279V366.335H533.383V456.279C533.383 465.823 525.767 473.632 516.416 473.632Z" fill="#5E3B3B"/>
<path d="M347.034 352.549L190.571 259.037V308.492H188.643V255.663L348.095 350.91L347.034 352.549Z" fill="#5E3B3B"/>
<path d="M363.519 20.6305V60.9273C363.519 67.0971 363.616 90.0412 363.616 90.0412L384.921 72.1101H439.1C445.366 72.1101 450.572 67.0971 450.572 60.9273V20.6305C450.572 14.4606 445.462 9.44763 439.1 9.44763H374.895C368.629 9.44763 363.519 14.4606 363.519 20.6305Z" fill="#5E3B3B"/>
<path d="M364.58 12.147V52.4438C364.58 58.6136 364.676 81.5577 364.676 81.5577L385.499 63.6266H438.329C444.498 63.6266 449.511 58.6136 449.511 52.4438V12.147C449.511 5.97711 444.498 0.964111 438.329 0.964111H375.666C369.593 0.964111 364.58 5.97711 364.58 12.147Z" fill="#FFC76C"/>
<path d="M403.623 42.5141H410.468L414.42 9.83325H399.671L403.623 42.5141Z" fill="white"/>
<path d="M411.336 50.0337C411.336 52.4438 409.407 54.3719 406.997 54.3719C404.587 54.3719 402.659 52.4438 402.659 50.0337C402.659 47.6236 404.587 45.6956 406.997 45.6956C409.407 45.6956 411.336 47.6236 411.336 50.0337Z" fill="white"/>
<path d="M363.616 83.5821V12.1469C363.616 5.49502 369.014 0 375.762 0H438.425C445.077 0 450.572 5.39861 450.572 12.1469V52.4437C450.572 59.0955 445.173 64.5906 438.425 64.5906H385.885L363.616 83.5821ZM375.666 1.92808C370.075 1.92808 365.447 6.45906 365.447 12.1469V79.4368L385.114 62.6625H438.329C443.92 62.6625 448.547 58.1315 448.547 52.4437V12.1469C448.547 6.55546 444.016 1.92808 438.329 1.92808H375.666Z" fill="#633F3F"/>
<path d="M518.273 32.1838L503.712 39.912L504.615 41.6151L519.177 33.8869L518.273 32.1838Z" fill="#5E3B3B"/>
<path d="M504.364 19.0898L496.57 33.6165L498.269 34.528L506.063 20.0014L504.364 19.0898Z" fill="#5E3B3B"/>
<path d="M461.851 307.528L464.647 303.479L470.045 307.046L467.732 311.288C467.25 312.156 467.057 313.216 467.153 314.276C467.153 314.276 468.021 319.482 467.925 320.543C467.828 321.41 465.514 325.845 464.743 326.327C464.165 326.616 463.297 326.038 463.297 326.038C463.297 326.038 465.032 317.458 464.068 315.723C463.683 315.048 462.912 313.987 462.237 313.12C460.791 311.288 460.791 309.167 461.851 307.528Z" fill="#FFB789"/>
<path d="M426.182 234.936L431.002 233.201L435.147 218.547L445.559 218.644L448.162 233.972L455.199 235.707C455.199 235.707 450.283 243.227 440.353 243.227C428.11 243.13 426.182 234.936 426.182 234.936Z" fill="#FFB284"/>
<path d="M443.245 222.982C439.389 225.874 432.737 225.874 429.363 225.007C425.796 224.139 422.036 221.922 426.953 211.703C430.327 204.665 430.038 202.834 431.388 199.652C432.255 197.628 434.569 196.182 438.811 196.567C445.945 197.242 455.874 213.534 443.245 222.982Z" fill="#FFB284"/>
<path d="M469.371 310.806C469.371 310.806 488.362 296.345 490.001 280.824C491.062 270.124 476.601 245.155 465.9 238.31C462.43 236.093 455.296 232.912 451.44 232.526C445.366 231.948 439.871 231.851 428.785 233.201C424.543 233.779 421.94 233.008 415.288 237.153C406.805 242.456 390.994 263.279 390.994 263.279L416.059 272.823L452.982 260.676L470.238 282.367L460.405 304.54C463.683 306.275 466.768 308.299 469.371 310.806Z" fill="#F75D59"/>
<path d="M417.023 480.959C417.12 491.949 414.517 498.311 414.517 498.311H374.509C374.509 498.311 377.498 491.37 392.344 489.731C401.213 488.767 402.274 480.862 402.274 480.862H417.023V480.959Z" fill="#4A292F"/>
<path d="M475.059 480.959C477.372 490.117 477.758 498.311 477.758 498.311H436.304C436.304 498.311 439.293 491.37 454.139 489.731C463.008 488.767 460.212 480.862 460.212 480.862H475.059V480.959Z" fill="#4A292F"/>
<path d="M443.92 296.924C451.343 297.02 457.224 296.249 457.224 296.249C457.224 296.249 472.359 322.374 457.224 336.16L482.289 481.248C482.289 481.248 475.251 489.828 433.99 483.369L430.52 369.419L443.92 296.924Z" fill="#5E3B3B"/>
<path d="M445.848 484.911C442.281 484.526 438.329 484.044 433.99 483.369L430.52 369.419L431.098 366.142L436.304 360.647L445.848 484.911Z" fill="#4A292F"/>
<path d="M437.557 301.069C437.557 301.069 417.12 296.442 417.12 297.117C417.12 297.695 401.695 348.5 390.994 396.702C381.354 440.373 378.269 481.826 378.269 481.826C397.453 491.467 425.411 483.947 425.411 483.947L423.097 400.751L445.077 336.064C445.077 336.064 457.995 327.098 449.029 296.442L437.557 301.069Z" fill="#77B6F3"/>
<path d="M443.751 305.63L430.027 369.238L430.969 369.442L444.693 305.833L443.751 305.63Z" fill="white"/>
<path d="M460.694 486.454C453.946 486.454 445.173 485.779 433.894 484.044L434.087 482.598C470.431 488.285 479.975 482.115 481.421 480.862L456.356 335.774L456.645 335.485C471.106 322.278 456.645 296.731 456.549 296.442L457.802 295.671C457.995 295.96 472.841 322.182 457.995 336.257L483.06 481.248L482.867 481.537C482.674 481.923 478.625 486.454 460.694 486.454Z" fill="white"/>
<path d="M417.12 297.213C417.12 297.791 400.731 347.054 390.994 396.798C382.414 440.662 378.269 481.923 378.269 481.923C397.453 491.563 425.411 484.044 425.411 484.044L423.097 400.847L445.077 336.16C445.077 336.16 459.248 326.231 450.186 295.478C450.186 295.478 417.12 296.538 417.12 297.213Z" fill="#5E3B3B"/>
<path d="M402.563 487.514C394.465 487.514 385.499 486.357 377.883 482.501L378.558 481.248C395.815 489.924 420.59 484.429 424.543 483.465L422.229 400.751V400.654L444.306 335.775L444.498 335.678C444.595 335.582 453.946 328.737 450.572 307.239L452.018 307.046C455.392 328.062 447.005 335.582 445.559 336.739L423.675 401.04L425.989 484.718L425.41 484.911C425.41 484.718 414.999 487.514 402.563 487.514Z" fill="white"/>
<path d="M412.01 228.574C412.3 227.706 413.167 225.007 413.842 224.428C414.42 223.946 418.18 221.632 417.602 220.765C416.927 219.897 414.806 222.114 414.42 221.343C414.131 220.861 418.373 216.523 417.313 215.848C416.638 215.366 414.421 218.451 414.131 218.065C413.842 217.68 417.313 214.691 416.349 213.92C415.288 213.149 413.746 217.101 413.264 216.716C413.071 216.523 415.77 212.86 414.999 212.378C413.938 211.606 411.818 216.234 411.239 215.945C410.95 215.752 412.01 214.306 412.492 213.342C412.782 212.86 412.396 212.474 412.01 212.667C408.54 214.884 406.708 222.114 406.226 222.693C405.551 223.464 404.973 224.332 404.298 225.103L412.01 228.574Z" fill="#FFB789"/>
<path d="M414.613 298.081L421.072 301.744L426.76 300.201L431.966 304.154L457.706 297.888L464.358 291.14L462.43 287.187L467.057 278.029C467.057 278.029 466.768 260.483 466.189 253.831L411.239 263.568L414.613 298.081Z" fill="#F75D59"/>
<path d="M449.993 287.283L448.547 286.994C449.511 282.174 450.861 274.462 451.825 265.4L453.271 265.496C452.404 274.558 451.054 282.367 449.993 287.283Z" fill="#633F3F"/>
<path d="M432.255 234.261L416.83 269.738C416.83 269.738 398.225 286.994 387.909 282.656C379.04 278.896 377.498 271.57 380.197 263.857C383.475 254.892 403.527 223.753 403.527 223.753C406.901 226.26 410.275 228.188 413.649 228.67L405.069 258.459L432.255 234.261Z" fill="#F75D59"/>
<path d="M460.694 295.96L459.634 294.996L463.49 291.043L461.562 287.187L461.755 286.801C463.394 284.102 466.189 279.282 466.286 277.932C466.768 273.594 466.478 264.918 466.286 258.555C466.189 256.82 466.189 255.181 466.189 253.831H467.635C467.635 255.181 467.732 256.82 467.732 258.555C467.925 265.014 468.214 273.787 467.635 278.125C467.443 280.053 464.068 285.645 463.104 287.187L465.129 291.236L460.694 295.96Z" fill="#633F3F"/>
<path d="M391.669 263.664L390.512 262.797C391.187 261.929 406.226 241.395 415.095 236.479L415.77 237.732C407.19 242.552 391.766 263.472 391.669 263.664Z" fill="#633F3F"/>
<path d="M415.674 237.539L415.192 236.768C420.397 233.49 424.35 233.104 428.11 232.815L428.881 232.719L428.977 233.683L428.206 233.779C424.446 233.972 420.687 234.358 415.674 237.539Z" fill="#633F3F"/>
<path d="M410.468 275.715L409.697 274.462C413.746 271.859 416.252 269.159 416.349 269.063L417.409 270.027C417.216 270.316 414.613 273.016 410.468 275.715Z" fill="#633F3F"/>
<path d="M439.003 191.94C447.583 190.976 460.116 193.868 459.923 206.883C459.73 218.74 446.041 221.44 446.041 221.44C446.041 221.44 443.438 218.933 443.92 213.824C444.113 211.992 443.824 210.45 442.378 209.678C441.124 209.004 439.485 209.196 438.521 210.16C437.75 210.932 436.786 211.606 436.208 210.642C435.34 209.004 436.883 204.183 433.219 201.966C430.616 200.424 429.652 198.688 429.652 197.339C429.556 194.736 432.352 192.711 439.003 191.94Z" fill="#4A292F"/>
<path d="M441.221 216.33C440.16 216.33 439.389 215.655 439.389 215.559L440.064 214.884C440.064 214.884 440.932 215.655 442.088 215.173C443.342 214.595 443.631 213.438 443.631 213.438L444.595 213.631C444.595 213.727 444.209 215.27 442.57 216.041C441.992 216.234 441.606 216.33 441.221 216.33Z" fill="#4A292F"/>
<path d="M433.316 226.163C432.641 226.163 432.159 226.067 432.159 226.067L432.352 224.621C432.352 224.621 436.208 225.103 439.389 222.886L440.257 224.042C437.654 225.971 434.858 226.163 433.316 226.163Z" fill="#633F3F"/>
<path d="M459.248 203.026C459.248 203.026 466.961 201.195 470.528 205.147C476.312 211.414 472.745 225.681 477.565 231.176C484.12 238.599 486.338 252 477.179 256.434C468.503 260.676 457.802 253.542 461.755 237.25C464.454 226.067 465.225 216.427 464.743 212.378C463.972 205.822 462.43 205.629 459.345 204.665L459.248 203.026Z" fill="#4A292F"/>
<path d="M429.845 233.008L431.773 227.224C437.075 227.995 442.474 227.031 447.776 224.139L449.801 232.43C449.801 232.43 436.593 236.093 429.845 233.008Z" fill="#F75D59"/>
<path d="M461.851 254.988C457.706 251.036 456.645 244.191 458.959 236.382C462.044 225.874 463.297 216.137 463.008 211.896C462.526 206.111 461.466 205.726 458.863 204.762L458.381 204.569L458.863 203.219L459.345 203.412C462.43 204.569 463.972 205.437 464.454 211.799C464.743 216.041 463.586 225.681 460.405 236.768C458.284 244.094 459.152 250.361 462.912 253.928L461.851 254.988Z" fill="#4A292F"/>
<path d="M432.062 200.52C430.134 199.556 425.7 194.832 430.424 191.844C436.015 188.373 447.873 195.603 447.873 195.603L432.062 200.52Z" fill="#4A292F"/>
<path d="M420.976 302.515L414.324 298.755L414.999 297.502L421.169 300.973L435.244 297.213L435.629 298.659L420.976 302.515Z" fill="#633F3F"/>
<path d="M431.773 304.925L426.567 300.973L427.435 299.816L432.159 303.383L443.824 300.684L444.113 302.033L431.773 304.925Z" fill="#633F3F"/>
<path d="M438.714 236.382C435.726 236.382 433.316 235.804 431.87 235.322L432.255 233.972C435.051 234.84 442.378 236.382 449.319 231.755L450.09 233.008C446.234 235.611 442.088 236.382 438.714 236.382Z" fill="#633F3F"/>
<path d="M446.876 227.005L445.467 227.33L446.442 231.557L447.851 231.232L446.876 227.005Z" fill="#633F3F"/>
<path d="M471.491 306.853C469.563 302.804 463.394 301.551 463.297 301.551L463.586 300.105C463.876 300.202 470.527 301.551 472.745 306.275L471.491 306.853Z" fill="#633F3F"/>
<path d="M403.623 223.753L398.803 227.802L398.417 235.804L403.623 223.753Z" fill="#F75D59"/>
<path d="M393.212 240.72L395.429 231.851L401.888 228.188L404.78 233.586L393.212 240.72Z" fill="#F75D59"/>
<path d="M410.468 233.201C405.551 233.201 401.695 228.67 401.502 228.477L402.563 227.513C402.563 227.513 406.612 232.237 411.239 231.658L411.432 233.104C411.143 233.201 410.757 233.201 410.468 233.201Z" fill="#633F3F"/>
<path d="M418.029 168.486L416.272 169.28L423.057 184.303L424.814 183.509L418.029 168.486Z" fill="#633F3F"/>
<path d="M403.389 180.664L402.371 182.301L416.372 191.005L417.39 189.368L403.389 180.664Z" fill="#633F3F"/>
<path d="M414.097 197.665L397.615 197.963L397.65 199.89L414.132 199.593L414.097 197.665Z" fill="#633F3F"/>
<path d="M422.503 400.396L415.963 409.348L417.131 410.201L423.671 401.249L422.503 400.396Z" fill="white"/>
<path d="M424.639 319.868C422.036 319.868 419.915 319.097 418.469 317.554C415.384 314.373 415.674 309.263 415.674 309.071L417.12 309.167C417.12 309.167 416.831 313.891 419.433 316.494C420.783 317.843 422.711 318.518 425.218 318.422L425.314 319.868C425.121 319.868 424.928 319.868 424.639 319.868Z" fill="white"/>
<path d="M108.145 478.067H214.19C220.649 478.067 225.855 472.764 225.855 466.402L230.675 268.292C230.675 261.833 225.372 256.627 219.01 256.627H103.325C96.8662 256.627 91.6604 261.929 91.6604 268.292L96.4806 466.402C96.4806 472.861 101.686 478.067 108.145 478.067Z" fill="#5E3B3B"/>
<path d="M214.19 479.031H108.145C101.204 479.031 95.5165 473.343 95.5165 466.402L90.6963 268.292C90.6963 261.254 96.3841 255.567 103.325 255.567H219.01C225.951 255.567 231.639 261.254 231.639 268.195L226.818 466.305C226.915 473.343 221.227 479.031 214.19 479.031ZM103.325 257.495C97.4446 257.495 92.6244 262.315 92.6244 268.195L97.4446 466.305C97.4446 472.282 102.265 477.102 108.145 477.102H214.19C220.07 477.102 224.89 472.282 224.89 466.402L229.711 268.292C229.711 262.411 224.89 257.591 219.01 257.591H103.325V257.495Z" fill="#633F3F"/>
<path d="M116.822 478.067H222.866C229.325 478.067 234.531 472.764 234.531 466.402L239.351 268.292C239.351 261.833 234.049 256.627 227.686 256.627H112.002C105.542 256.627 100.337 261.929 100.337 268.292L105.157 466.402C105.157 472.861 110.363 478.067 116.822 478.067Z" fill="white"/>
<path d="M128.969 342.234H211.298C217.949 342.234 223.348 336.835 223.348 330.183V286.801C223.348 280.15 217.949 274.751 211.298 274.751H128.969C122.317 274.751 116.918 280.15 116.918 286.801V330.183C116.918 336.835 122.317 342.234 128.969 342.234Z" fill="#DCE7F9"/>
<path d="M222.866 479.031H116.822C109.881 479.031 104.193 473.343 104.193 466.402L99.3727 268.292C99.3727 261.254 105.061 255.567 112.002 255.567H227.686C234.627 255.567 240.315 261.254 240.315 268.195H238.387C238.387 262.315 233.567 257.495 227.686 257.495H112.002C106.121 257.495 101.301 262.315 101.301 268.195L106.121 466.305C106.121 472.282 110.941 477.102 116.822 477.102H222.866C228.747 477.102 233.567 472.282 233.567 466.402L234.049 447.41H235.977L235.495 466.402C235.591 473.343 229.903 479.031 222.866 479.031Z" fill="#633F3F"/>
<path d="M211.297 343.198H128.969C121.835 343.198 115.954 337.413 115.954 330.183V286.801C115.954 279.667 121.738 273.787 128.969 273.787H211.297C218.431 273.787 224.312 279.571 224.312 286.801V330.183C224.216 337.413 218.431 343.198 211.297 343.198ZM128.969 275.715C122.895 275.715 117.882 280.632 117.882 286.801V330.183C117.882 336.257 122.799 341.27 128.969 341.27H211.297C217.371 341.27 222.384 336.353 222.384 330.183V286.801C222.384 280.728 217.467 275.715 211.297 275.715H128.969Z" fill="#5E3B3B"/>
<path d="M97.9479 320.055L96.5023 320.09L98.9629 421.959L100.409 421.924L97.9479 320.055Z" fill="white"/>
<path d="M200.886 380.699H211.972C214.865 380.699 217.275 378.289 217.275 375.396V370.673C217.275 367.781 214.865 365.37 211.972 365.37H200.886C197.994 365.37 195.584 367.781 195.584 370.673V375.396C195.584 378.289 197.994 380.699 200.886 380.699Z" fill="#AFC9F9"/>
<path d="M200.886 380.699H211.972C214.865 380.699 217.275 378.289 217.275 375.396V370.673C217.275 367.781 214.865 365.37 211.972 365.37H200.886C197.994 365.37 195.584 367.781 195.584 370.673V375.396C195.584 378.289 197.994 380.699 200.886 380.699Z" fill="#F2695F"/>
<path d="M200.886 405.571H211.972C214.865 405.571 217.275 403.161 217.275 400.269V395.545C217.275 392.653 214.865 390.243 211.972 390.243H200.886C197.994 390.243 195.584 392.653 195.584 395.545V400.269C195.584 403.161 197.994 405.571 200.886 405.571Z" fill="#AFC9F9"/>
<path d="M200.886 430.154H211.972C214.865 430.154 217.275 427.744 217.275 424.852V420.128C217.275 417.236 214.865 414.826 211.972 414.826H200.886C197.994 414.826 195.584 417.236 195.584 420.128V424.852C195.584 427.744 197.994 430.154 200.886 430.154Z" fill="#AFC9F9"/>
<path d="M200.886 454.93H211.972C214.865 454.93 217.275 452.52 217.275 449.627V444.904C217.275 442.012 214.865 439.601 211.972 439.601H200.886C197.994 439.601 195.584 442.012 195.584 444.904V449.627C195.584 452.616 197.994 454.93 200.886 454.93Z" fill="#AFC9F9"/>
<path d="M165.795 380.699H176.881C179.773 380.699 182.184 378.289 182.184 375.396V370.673C182.184 367.781 179.773 365.37 176.881 365.37H165.795C162.903 365.37 160.493 367.781 160.493 370.673V375.396C160.493 378.289 162.903 380.699 165.795 380.699Z" fill="#AFCAF9"/>
<path d="M130.608 380.699H141.694C144.586 380.699 146.996 378.289 146.996 375.396V370.673C146.996 367.781 144.586 365.37 141.694 365.37H130.608C127.715 365.37 125.305 367.781 125.305 370.673V375.396C125.305 378.289 127.715 380.699 130.608 380.699Z" fill="#AFCAF9"/>
<path d="M200.886 405.571H211.972C214.865 405.571 217.275 403.161 217.275 400.269V395.545C217.275 392.653 214.865 390.243 211.972 390.243H200.886C197.994 390.243 195.584 392.653 195.584 395.545V400.269C195.584 403.161 197.994 405.571 200.886 405.571Z" fill="#AFCAF9"/>
<path d="M165.795 405.571H176.881C179.773 405.571 182.184 403.161 182.184 400.269V395.545C182.184 392.653 179.773 390.243 176.881 390.243H165.795C162.903 390.243 160.493 392.653 160.493 395.545V400.269C160.493 403.161 162.903 405.571 165.795 405.571Z" fill="#AFCAF9"/>
<path d="M130.608 405.571H141.694C144.586 405.571 146.996 403.161 146.996 400.269V395.545C146.996 392.653 144.586 390.243 141.694 390.243H130.608C127.715 390.243 125.305 392.653 125.305 395.545V400.269C125.305 403.161 127.715 405.571 130.608 405.571Z" fill="#AFCAF9"/>
<path d="M200.886 430.154H211.972C214.865 430.154 217.275 427.744 217.275 424.852V420.128C217.275 417.236 214.865 414.826 211.972 414.826H200.886C197.994 414.826 195.584 417.236 195.584 420.128V424.852C195.584 427.744 197.994 430.154 200.886 430.154Z" fill="#AFCAF9"/>
<path d="M165.795 430.154H176.881C179.773 430.154 182.184 427.744 182.184 424.852V420.128C182.184 417.236 179.773 414.826 176.881 414.826H165.795C162.903 414.826 160.493 417.236 160.493 420.128V424.852C160.493 427.744 162.903 430.154 165.795 430.154Z" fill="#AFCAF9"/>
<path d="M130.608 430.154H141.694C144.586 430.154 146.996 427.744 146.996 424.852V420.128C146.996 417.236 144.586 414.826 141.694 414.826H130.608C127.715 414.826 125.305 417.236 125.305 420.128V424.852C125.305 427.744 127.715 430.154 130.608 430.154Z" fill="#AFCAF9"/>
<path d="M130.608 454.93H141.694C144.586 454.93 146.996 452.52 146.996 449.627V444.904C146.996 442.012 144.586 439.601 141.694 439.601H130.608C127.715 439.601 125.305 442.012 125.305 444.904V449.627C125.305 452.616 127.715 454.93 130.608 454.93Z" fill="#AFCAF9"/>
<path d="M200.886 454.93H211.972C214.865 454.93 217.275 452.52 217.275 449.627V444.904C217.275 442.012 214.865 439.601 211.972 439.601H200.886C197.994 439.601 195.584 442.012 195.584 444.904V449.627C195.584 452.616 197.994 454.93 200.886 454.93Z" fill="#AFCAF9"/>
<path d="M165.795 454.93H176.881C179.773 454.93 182.184 452.52 182.184 449.627V444.904C182.184 442.012 179.773 439.601 176.881 439.601H165.795C162.903 439.601 160.493 442.012 160.493 444.904V449.627C160.493 452.616 162.903 454.93 165.795 454.93Z" fill="#AFCAF9"/>
<path d="M211.972 381.663H200.886C197.415 381.663 194.62 378.867 194.62 375.397V370.673C194.62 367.202 197.415 364.406 200.886 364.406H211.972C215.443 364.406 218.239 367.202 218.239 370.673V375.397C218.239 378.867 215.443 381.663 211.972 381.663ZM200.886 366.431C198.476 366.431 196.548 368.359 196.548 370.769V375.493C196.548 377.903 198.476 379.831 200.886 379.831H211.972C214.382 379.831 216.31 377.903 216.31 375.493V370.769C216.31 368.359 214.382 366.431 211.972 366.431H200.886Z" fill="#5E3B3B"/>
<path d="M176.881 381.663H165.795C162.324 381.663 159.529 378.867 159.529 375.397V370.673C159.529 367.202 162.324 364.406 165.795 364.406H176.881C180.352 364.406 183.148 367.202 183.148 370.673V375.397C183.148 378.867 180.256 381.663 176.881 381.663ZM165.795 366.431C163.385 366.431 161.457 368.359 161.457 370.769V375.493C161.457 377.903 163.385 379.831 165.795 379.831H176.881C179.291 379.831 181.22 377.903 181.22 375.493V370.769C181.22 368.359 179.291 366.431 176.881 366.431H165.795Z" fill="#5E3B3B"/>
<path d="M141.694 381.663H130.608C127.137 381.663 124.341 378.867 124.341 375.397V370.673C124.341 367.202 127.137 364.406 130.608 364.406H141.694C145.165 364.406 147.96 367.202 147.96 370.673V375.397C147.96 378.867 145.165 381.663 141.694 381.663ZM130.608 366.431C128.197 366.431 126.269 368.359 126.269 370.769V375.493C126.269 377.903 128.197 379.831 130.608 379.831H141.694C144.104 379.831 146.032 377.903 146.032 375.493V370.769C146.032 368.359 144.104 366.431 141.694 366.431H130.608Z" fill="#5E3B3B"/>
<path d="M211.972 406.535H200.886C197.415 406.535 194.62 403.739 194.62 400.269V395.545C194.62 392.074 197.415 389.279 200.886 389.279H211.972C215.443 389.279 218.239 392.074 218.239 395.545V400.269C218.239 403.739 215.443 406.535 211.972 406.535ZM200.886 391.303C198.476 391.303 196.548 393.231 196.548 395.641V400.365C196.548 402.775 198.476 404.703 200.886 404.703H211.972C214.382 404.703 216.31 402.775 216.31 400.365V395.641C216.31 393.231 214.382 391.303 211.972 391.303H200.886Z" fill="#5E3B3B"/>
<path d="M176.881 406.535H165.795C162.324 406.535 159.529 403.739 159.529 400.269V395.545C159.529 392.074 162.324 389.279 165.795 389.279H176.881C180.352 389.279 183.148 392.074 183.148 395.545V400.269C183.148 403.739 180.256 406.535 176.881 406.535ZM165.795 391.303C163.385 391.303 161.457 393.231 161.457 395.641V400.365C161.457 402.775 163.385 404.703 165.795 404.703H176.881C179.291 404.703 181.22 402.775 181.22 400.365V395.641C181.22 393.231 179.291 391.303 176.881 391.303H165.795Z" fill="#5E3B3B"/>
<path d="M141.694 406.535H130.608C127.137 406.535 124.341 403.739 124.341 400.269V395.545C124.341 392.074 127.137 389.279 130.608 389.279H141.694C145.165 389.279 147.96 392.074 147.96 395.545V400.269C147.96 403.739 145.165 406.535 141.694 406.535ZM130.608 391.303C128.197 391.303 126.269 393.231 126.269 395.641V400.365C126.269 402.775 128.197 404.703 130.608 404.703H141.694C144.104 404.703 146.032 402.775 146.032 400.365V395.641C146.032 393.231 144.104 391.303 141.694 391.303H130.608Z" fill="#5E3B3B"/>
<path d="M211.972 431.118H200.886C197.415 431.118 194.62 428.322 194.62 424.852V420.128C194.62 416.657 197.415 413.862 200.886 413.862H211.972C215.443 413.862 218.239 416.657 218.239 420.128V424.852C218.239 428.322 215.443 431.118 211.972 431.118ZM200.886 415.886C198.476 415.886 196.548 417.814 196.548 420.224V424.948C196.548 427.358 198.476 429.286 200.886 429.286H211.972C214.382 429.286 216.31 427.358 216.31 424.948V420.224C216.31 417.814 214.382 415.886 211.972 415.886H200.886Z" fill="#5E3B3B"/>
<path d="M176.881 431.118H165.795C162.324 431.118 159.529 428.322 159.529 424.852V420.128C159.529 416.657 162.324 413.862 165.795 413.862H176.881C180.352 413.862 183.148 416.657 183.148 420.128V424.852C183.148 428.322 180.256 431.118 176.881 431.118ZM165.795 415.886C163.385 415.886 161.457 417.814 161.457 420.224V424.948C161.457 427.358 163.385 429.286 165.795 429.286H176.881C179.291 429.286 181.22 427.358 181.22 424.948V420.224C181.22 417.814 179.291 415.886 176.881 415.886H165.795Z" fill="#5E3B3B"/>
<path d="M141.694 431.118H130.608C127.137 431.118 124.341 428.322 124.341 424.852V420.128C124.341 416.657 127.137 413.862 130.608 413.862H141.694C145.165 413.862 147.96 416.657 147.96 420.128V424.852C147.96 428.322 145.165 431.118 141.694 431.118ZM130.608 415.886C128.197 415.886 126.269 417.814 126.269 420.224V424.948C126.269 427.358 128.197 429.286 130.608 429.286H141.694C144.104 429.286 146.032 427.358 146.032 424.948V420.224C146.032 417.814 144.104 415.886 141.694 415.886H130.608Z" fill="#5E3B3B"/>
<path d="M211.972 455.894H200.886C197.415 455.894 194.62 453.098 194.62 449.627V444.904C194.62 441.433 197.415 438.637 200.886 438.637H211.972C215.443 438.637 218.239 441.433 218.239 444.904V449.627C218.239 453.098 215.443 455.894 211.972 455.894ZM200.886 440.662C198.476 440.662 196.548 442.59 196.548 445V449.724C196.548 452.134 198.476 454.062 200.886 454.062H211.972C214.382 454.062 216.31 452.134 216.31 449.724V445C216.31 442.59 214.382 440.662 211.972 440.662H200.886Z" fill="#5E3B3B"/>
<path d="M176.881 455.894H165.795C162.324 455.894 159.529 453.098 159.529 449.627V444.904C159.529 441.433 162.324 438.637 165.795 438.637H176.881C180.352 438.637 183.148 441.433 183.148 444.904V449.627C183.148 453.098 180.256 455.894 176.881 455.894ZM165.795 440.662C163.385 440.662 161.457 442.59 161.457 445V449.724C161.457 452.134 163.385 454.062 165.795 454.062H176.881C179.291 454.062 181.22 452.134 181.22 449.724V445C181.22 442.59 179.291 440.662 176.881 440.662H165.795Z" fill="#5E3B3B"/>
<path d="M141.694 455.894H130.608C127.137 455.894 124.341 453.098 124.341 449.627V444.904C124.341 441.433 127.137 438.637 130.608 438.637H141.694C145.165 438.637 147.96 441.433 147.96 444.904V449.627C147.96 453.098 145.165 455.894 141.694 455.894ZM130.608 440.662C128.197 440.662 126.269 442.59 126.269 445V449.724C126.269 452.134 128.197 454.062 130.608 454.062H141.694C144.104 454.062 146.032 452.134 146.032 449.724V445C146.032 442.59 144.104 440.662 141.694 440.662H130.608Z" fill="#5E3B3B"/>
<path d="M125.402 335.196C126.68 335.196 127.715 334.16 127.715 332.882C127.715 331.605 126.68 330.569 125.402 330.569C124.124 330.569 123.088 331.605 123.088 332.882C123.088 334.16 124.124 335.196 125.402 335.196Z" fill="#633F3F"/>
<path d="M612.916 464.377H521.332V482.115H612.916V464.377Z" fill="#FFC76C"/>
<path d="M593.635 444.711H502.052V462.449H593.635V444.711Z" fill="#FFC76C"/>
<path d="M612.819 425.237H521.236V442.976H612.819V425.237Z" fill="#FFC76C"/>
<path d="M531.84 425.237H529.912V442.976H531.84V425.237Z" fill="#5E3B3B"/>
<path d="M541.481 425.237H539.553V442.976H541.481V425.237Z" fill="#5E3B3B"/>
<path d="M570.402 425.237H568.474V442.976H570.402V425.237Z" fill="#5E3B3B"/>
<path d="M589.683 425.237H587.754V442.976H589.683V425.237Z" fill="#5E3B3B"/>
<path d="M512.656 444.711H510.728V462.449H512.656V444.711Z" fill="#5E3B3B"/>
<path d="M522.296 444.711H520.368V462.449H522.296V444.711Z" fill="#5E3B3B"/>
<path d="M551.217 444.711H549.289V462.449H551.217V444.711Z" fill="#5E3B3B"/>
<path d="M560.858 444.711H558.93V462.449H560.858V444.711Z" fill="#5E3B3B"/>
<path d="M570.498 464.377H568.57V482.115H570.498V464.377Z" fill="#5E3B3B"/>
<path d="M589.779 464.377H587.851V482.115H589.779V464.377Z" fill="#5E3B3B"/>
<path d="M599.419 464.377H597.491V482.115H599.419V464.377Z" fill="#5E3B3B"/>
<path d="M612.82 442.879H521.718V444.807H612.82V442.879Z" fill="#5E3B3B"/>
<path d="M593.539 462.546H502.052V464.474H593.539V462.546Z" fill="#5E3B3B"/>
</svg>
